# xmcd
# 
# Track frame offsets:
#     150
#     14208
#     23279
#     30914
#     46162
#     62723
#     73589
#     94326
#     113847
#     126730
#     143970
#     157433
#     174281
# 
# Disc length: 2583
# 
# Revision: 1
# Processed by: cddbd v1.5.2PL0 Copyright (c) Steve Scherf et al.
# Submitted via: fre:ac v1.0.31
# 
DISCID=b50a150d
DTITLE=Silvan Zingg - Piano Solo - live and Studio
DYEAR=2014
DGENRE=Blues
TTITLE0=Chicago Blues
TTITLE1=Boogie For Nicole
TTITLE2=Humoresque Boogie
TTITLE3=House Rent Party Blues
TTITLE4=Blues Trip
TTITLE5=Lobster Groove
TTITLE6=Pinetop's Boogie Woogie
TTITLE7=Take Five
TTITLE8=Date Blues
TTITLE9=Hymn To Freedom
TTITLE10=Swingin' The Blue Notes
TTITLE11=Blues For Claude
TTITLE12=What A Wonderful World
EXTD=
EXTT0=
EXTT1=
EXTT2=
EXTT3=
EXTT4=
EXTT5=
EXTT6=
EXTT7=
EXTT8=
EXTT9=
EXTT10=
EXTT11=
EXTT12=
PLAYORDER=
